<svg xmlns="http://www.w3.org/2000/svg" viewBox="0 0 1024 1024" width="1024" height="1024">
  <!-- SlyTab app icon (1024x1024, iOS/Android master).
       Navy ground, split-coin mark; seam painted in the ground colour. -->
  <rect width="1024" height="1024" rx="224" fill="#0c1220"/>
  <g transform="translate(512 512) scale(8.6) translate(-48 -48)">
    <path d="M48 8 A40 40 0 0 0 48 88 A20 20 0 0 0 48 48 A20 20 0 0 1 48 8 Z"
          fill="#4f8ef7"/>
    <path d="M48 8 A40 40 0 0 1 48 88 A20 20 0 0 0 48 48 A20 20 0 0 1 48 8 Z"
          fill="#34c98e"/>
    <path d="M48 8 A20 20 0 0 0 48 48 A20 20 0 0 1 48 88"
          fill="none" stroke="#0c1220" stroke-width="5" stroke-linecap="round"/>
  </g>
</svg>
